PathFileType	4	(X/Y/Z)	CPRIT_Patient3_R_AnkleIso_Processed.TRC
DataRate	CameraRate	NumFrames	NumMarkers	Units	OrigDataRate	OrigDataStartFrame	OrigNumFrames
150.227617602428	150.227617602428	4	39	m	150.227617602428	331	       661
Frame#	Time	R.Heel			R.Midfoot.Superior			R.Midfoot.Lateral			R.Toe			L.Heel			L.Midfoot.Superior			L.Midfoot.Lateral			L.Toe			R.Shank.Superior			R.Shank.Inferior			R.Shank.Lateral			R.Shank.Posterior			L.Shank.Superior			L.Shank.Inferior			L.Shank.Posterior			L.Shank.Lateral			R.Patella			L.Patella			R.Thigh.Superior			R.Thigh.Lateral			R.Thigh.Inferior			L.Thigh.Superior			L.Thigh.Inferior			L.Thigh.Lateral			L.Asis			R.Asis			Sacral			R.Shoulder			L.Shoulder			C7			J.Notch			Sternum			Thoracic			L.Elbow			L.Wrist			R.Elbow			R.Wrist			R.PSIS			L.PSIS			
		X1	Y1	Z1	X2	Y2	Z2	X3	Y3	Z3	X4	Y4	Z4	X5	Y5	Z5	X6	Y6	Z6	X7	Y7	Z7	X8	Y8	Z8	X9	Y9	Z9	X10	Y10	Z10	X11	Y11	Z11	X12	Y12	Z12	X13	Y13	Z13	X14	Y14	Z14	X15	Y15	Z15	X16	Y16	Z16	X17	Y17	Z17	X18	Y18	Z18	X19	Y19	Z19	X20	Y20	Z20	X21	Y21	Z21	X22	Y22	Z22	X23	Y23	Z23	X24	Y24	Z24	X25	Y25	Z25	X26	Y26	Z26	X27	Y27	Z27	X28	Y28	Z28	X29	Y29	Z29	X30	Y30	Z30	X31	Y31	Z31	X32	Y32	Z32	X33	Y33	Z33	X34	Y34	Z34	X35	Y35	Z35	X36	Y36	Z36	X37	Y37	Z37	X38	Y38	Z38	X39	Y39	Z39	

331	2.196666666667	1.002233683757	0.086016951260	0.176979393546	1.135562137735	0.203246557249	0.187726790331	1.067189002034	0.120899755437	0.238221896941	1.254597829467	0.216204947872	0.213835996041	0.643956360989	0.042771270709	-0.093827996957	0.806643766746	0.095571327478	-0.144420623692	0.709501910580	0.032700589360	-0.166022114277	0.920268374106	0.056547851531	-0.173567394564	0.997820908834	0.435869003734	0.153635171589	1.035332049306	0.321445741800	0.173109629484	0.946772064892	0.355156983048	0.213704721346	0.870083678783	0.378306766768	0.146817772480	0.771559380938	0.363085964389	-0.167714239163	0.758757150150	0.235888120454	-0.151565202329	0.633130032455	0.344853768623	-0.151318362466	0.696905439304	0.278061935930	-0.205056806693	0.972994151750	0.553581424696	0.113617492544	0.804046871263	0.466470656621	-0.169414704783	0.878003723755	0.839684151968	0.089633889120	0.829876770802	0.756920057101	0.146320397302	0.935230925073	0.696704205398	0.075291405101	0.862396072271	0.776065461194	-0.183614726627	0.845781592305	0.611487228819	-0.170514435926	0.763313753847	0.704654660597	-0.241869942829	0.855299184166	0.936782723079	-0.177150709073	0.816915287673	0.951259112183	0.063670640530	0.648610429634	0.984789520747	-0.075958196066	0.769607457407	1.438107123088	0.091189119481	0.813222945010	1.456027820869	-0.217504596200	0.748276395753	1.477066061821	-0.062945938075	0.851827108951	1.362948546575	-0.057309035294	0.891888397889	1.185083091995	-0.064448985592	0.644258210137	1.326084716210	-0.083848993386	0.850856555778	1.173593458109	-0.383792136442	1.008774148332	0.988448624590	-0.444262738057	0.767834491779	1.164872666766	0.275092509017	0.906662957501	0.991653262957	0.405026406278	0.644452383101	0.985923485618	-0.039223509965	0.652423524793	0.985705220659	-0.112954068912	
332	2.203323232323	1.002357726301	0.085814954409	0.177120594828	1.135485237420	0.203327942719	0.187240439579	1.067670818483	0.120708640800	0.237998890448	1.254696313580	0.216513818753	0.212538069921	0.643956225569	0.042770026064	-0.093827511495	0.806642446504	0.095571358195	-0.144425510582	0.709501576751	0.032700445429	-0.166021824233	0.920266833428	0.056547946583	-0.173566538542	0.997840735935	0.435822441430	0.153499612005	1.035320839170	0.321390080898	0.172967912355	0.946794790069	0.355145162024	0.213727523150	0.870080799098	0.378326366947	0.146863570621	0.771545211003	0.363087438749	-0.167722777470	0.758747159371	0.235889255421	-0.151571991416	0.633119009396	0.344849459481	-0.151313729245	0.696888418720	0.278059930242	-0.205057965116	0.973007105725	0.553539533749	0.113458060484	0.804053877178	0.466466776232	-0.169458288142	0.878045506419	0.839671603560	0.089575955031	0.829922272934	0.756900315055	0.146283434520	0.935244648914	0.696680808547	0.075193808175	0.862375332782	0.776063488282	-0.183665679701	0.845778789560	0.611483470776	-0.170566542880	0.763275541930	0.704653836612	-0.241880287094	0.855269159852	0.936779975138	-0.177190298310	0.816931484964	0.951267919318	0.063644160856	0.648603217511	0.984800267566	-0.075948914941	0.769649089294	1.438095952667	0.091173609950	0.813238167294	1.456023817704	-0.217519881615	0.748315434830	1.477071617859	-0.062968065460	0.851843421839	1.362924817935	-0.057332985809	0.891877926861	1.185055239368	-0.064495455511	0.644277489022	1.326101678243	-0.083854765356	0.850840908805	1.173589931417	-0.383819382207	1.008770412576	0.988448668169	-0.444269808613	0.767833595302	1.164870985885	0.275086505935	0.906660833939	0.991651318177	0.405021512194	0.644454952851	0.985935487240	-0.039214021775	0.652404968992	0.985711415806	-0.112946389776	
333	2.209979797980	1.002477540112	0.085607259756	0.177272880786	1.135396836588	0.203406967435	0.186744639614	1.068173872720	0.120494952631	0.237762404061	1.254782923109	0.216820844515	0.211177969207	0.643956115984	0.042768768052	-0.093826978623	0.806640890483	0.095571103398	-0.144430775401	0.709501247528	0.032700268890	-0.166021573086	0.920265306252	0.056547835826	-0.173565665952	0.997854702408	0.435772654657	0.153369101647	1.035301063163	0.321330051458	0.172832018005	0.946809269257	0.355132263370	0.213760630055	0.870071827906	0.378345794641	0.146915979704	0.771531994466	0.363088500523	-0.167731594352	0.758737888141	0.235890314412	-0.151578715127	0.633108744718	0.344845250106	-0.151309161321	0.696872221717	0.278057948900	-0.205059452046	0.973016317190	0.553494918234	0.113302715056	0.804059129690	0.466462440512	-0.169498270091	0.878086459107	0.839656931694	0.089521565069	0.829963345546	0.756878582804	0.146248789603	0.935256233068	0.696655656538	0.075101574205	0.862355820522	0.776061349836	-0.183713849728	0.845775708475	0.611479786855	-0.170614841720	0.763239765262	0.704653190231	-0.241889946014	0.855241278951	0.936777194006	-0.177228785247	0.816947525530	0.951276360100	0.063618593219	0.648597658769	0.984811358933	-0.075939971589	0.769690309949	1.438084404596	0.091157514438	0.813250677406	1.456019245648	-0.217536460018	0.748352943966	1.477077427865	-0.062992426932	0.851859963560	1.362900608102	-0.057355650711	0.891868713563	1.185028671497	-0.064542524634	0.644296167171	1.326117577243	-0.083861081205	0.850824458092	1.173585409306	-0.383846622665	1.008766847517	0.988448585270	-0.444277909733	0.767832833552	1.164870136634	0.275081261893	0.906658704593	0.991649604771	0.405016980931	0.644459054094	0.985947641527	-0.039204778104	0.652388281232	0.985717701532	-0.112939226501	
334	2.216636363636	1.002595067440	0.085392334803	0.177438958013	1.135295242368	0.203485561491	0.186237322889	1.068701682372	0.120257979472	0.237510912050	1.254854543323	0.217131332780	0.209746678300	0.643956030345	0.042767523999	-0.093826417146	0.806639129132	0.095570563808	-0.144436362546	0.709500920078	0.032700053563	-0.166021366982	0.920263819389	0.056547519044	-0.173564791402	0.997862747553	0.435719635919	0.153244250439	1.035272351359	0.321265524596	0.172702331311	0.946815385582	0.355118388269	0.213805141263	0.870056740396	0.378365123034	0.146975913635	0.771519818627	0.363089159900	-0.167740704106	0.758729390130	0.235891297364	-0.151585406246	0.633099306649	0.344841144700	-0.151304866273	0.696857029974	0.278055962325	-0.205061348455	0.973021573254	0.553447754163	0.113151990430	0.804062661299	0.466457645066	-0.169534529117	0.878126473355	0.839640282391	0.089470631564	0.830000068340	0.756855154720	0.146216432993	0.935265638052	0.696628763279	0.075014686645	0.862337695574	0.776059057583	-0.183759058560	0.845772448054	0.611476192784	-0.170659132117	0.763206701866	0.704652686460	-0.241898980834	0.855215716377	0.936774391205	-0.177266077991	0.816963307225	0.951284457209	0.063593990077	0.648593832011	0.984822748766	-0.075931598653	0.769731126123	1.438072553815	0.091140944501	0.813260645548	1.456014138866	-0.217554169995	0.748389016794	1.477083459082	-0.063018709043	0.851876781303	1.362875684095	-0.057376415892	0.891860784168	1.185003358693	-0.064589894291	0.644314324258	1.326132442581	-0.083867832854	0.850807285894	1.173579893645	-0.383873561042	1.008763549320	0.988448340088	-0.444287014960	0.767832156757	1.164870153956	0.275076879133	0.906656562058	0.991648168972	0.405012829073	0.644464650150	0.985959884715	-0.039196000945	0.652373634873	0.985724080386	-0.112932800927	
